# xmcd
#
# Track frame offsets: 
#        150
#        23413
#        47973
#        70080
#        90258
#        111965
#        133373
#        157150
#        181263
#        202523
#        223465
#        243395
#
# Disc length: 3577 seconds
#
# Revision: 0
# Processed by: cddbd v1.5.2PL0 Copyright (c) Steve Scherf et al.
# Submitted via: ExactAudioCopy v1.0b3
#
DISCID=a60df70c
DTITLE=Giao Linh - Tam Su Voi Anh
DYEAR=1990
DGENRE=
TTITLE0=Chuyen buon ngay Xuan
TTITLE1=Ai kho vi ai
TTITLE2=Mua dong ve chua em
TTITLE3=Nho nguoi thuong khong
TTITLE4=Bai hat nay cho anh
TTITLE5=Hoa tim ngay xua
TTITLE6=Tam su voi anh
TTITLE7=Mot chuyen bay dem
TTITLE8=Xuoi dong
TTITLE9=Ke chuyen trong dem
TTITLE10=Doc tin tren bao
TTITLE11=Ngay mai khong co anh
EXTD=
EXTT0=
EXTT1=
EXTT2=
EXTT3=
EXTT4=
EXTT5=
EXTT6=
EXTT7=
EXTT8=
EXTT9=
EXTT10=
EXTT11=
PLAYORDER=
